# xmcd CD database generated by RipIT
#
# Track frame offsets:
# 150
# 19945
# 36566
# 58219
# 77936
# 92110
# 108039
# 125431
# 144550
# 176771
#
# Disc length: 2675 seconds
#
# Revision: 0
# Processed by: cddbd v1.5.2PL0 Copyright (c) Steve Scherf et al.
# Submitted via: RipIT 3.6.0 www.suwald.com/ripit/ripit.html on 2008-10-01 at 11:20
#
DISCID=8c0a710a
DTITLE=van Canto - Hero
DYEAR=2008
DGENRE=Metal
TTITLE0=Speed_of_Light
TTITLE1=Kings_of_Metal
TTITLE2=Pathfinder
TTITLE3=Wishmaster
TTITLE4=The_Bard's_Song_-_In_the_Forest
TTITLE5=Quest_for_Roar
TTITLE6=Stormbringer
TTITLE7=Take_To_The_Sky
TTITLE8=Fear_Of_The_Dark
TTITLE9=Hero
EXTD=
EXTT0=
EXTT1=
EXTT2=
EXTT3=
EXTT4=
EXTT5=
EXTT6=
EXTT7=
EXTT8=
EXTT9=
PLAYORDER=
